<?xml version="1.0" encoding="UTF-8" standalone="no"?>
<!DOCTYPE svg PUBLIC "-//W3C//DTD SVG 1.1//EN" "http://www.w3.org/Graphics/SVG/1.1/DTD/svg11.dtd">
<svg version="1.1" xmlns="http://www.w3.org/2000/svg" xmlns:xlink="http://www.w3.org/1999/xlink" preserveAspectRatio="xMidYMid meet" viewBox="57.51619644723098 82.79310344827587 220.00835945663528 245.56274183576255" width="216" height="241.92"><defs><path d="M58.52 101.5L274.52 101.5L274.52 109.32L58.52 109.32L58.52 101.5Z" id="a1bDTO7Qaw"></path><path d="M170.82 109.35L170.04 325.36L162.22 325.33L163 109.32L170.82 109.35Z" id="aTaMhusvQ"></path><path d="M153.04 126.45L152.33 325.36L144.51 325.33L145.23 126.42L153.04 126.45Z" id="b4XJxK2YbD"></path><path d="M58.52 118.61L153 118.61L153 126.43L58.52 126.43L58.52 118.61Z" id="b1zdSviAgX"></path><path d="M180 126.45L180.71 325.36L188.53 325.33L187.81 126.42L180 126.45Z" id="cPHGEXjew"></path><path d="M274.52 118.61L180.04 118.61L180.04 126.43L274.52 126.43L274.52 118.61Z" id="eMbDh9lBm"></path><path d="M58.52 83.79L274.52 83.79L274.52 91.61L58.52 91.61L58.52 83.79Z" id="b13wwzYY2"></path></defs><g><g><use xlink:href="#a1bDTO7Qaw" opacity="1" fill="#ff4bd9" fill-opacity="1"></use></g><g><use xlink:href="#aTaMhusvQ" opacity="1" fill="#ff4bd9" fill-opacity="1"></use></g><g><use xlink:href="#b4XJxK2YbD" opacity="1" fill="#ff4bd9" fill-opacity="1"></use></g><g><use xlink:href="#b1zdSviAgX" opacity="1" fill="#ff4bd9" fill-opacity="1"></use></g><g><use xlink:href="#cPHGEXjew" opacity="1" fill="#ff4bd9" fill-opacity="1"></use></g><g><use xlink:href="#eMbDh9lBm" opacity="1" fill="#ff4bd9" fill-opacity="1"></use></g><g><use xlink:href="#b13wwzYY2" opacity="1" fill="#ff4bd9" fill-opacity="1"></use></g></g></svg>